<?xml version="1.0" encoding="utf-8"?>
<!-- Generator: Adobe Illustrator 18.1.1, SVG Export Plug-In . SVG Version: 6.00 Build 0)  -->
<svg version="1.1" id="レイヤー_1" xmlns:sketch="http://www.bohemiancoding.com/sketch/ns"
	 xmlns="http://www.w3.org/2000/svg" xmlns:xlink="http://www.w3.org/1999/xlink" x="0px" y="0px" viewBox="0 0 800 628"
	 enable-background="new 0 0 800 628" xml:space="preserve">
<title>Untitled 5</title>
<description>Created with Sketch (http://www.bohemiancoding.com/sketch)</description>
<g id="Page-1" sketch:type="MSPage">
	<g id="Group" transform="translate(-1.000000, 13.000000)" sketch:type="MSLayerGroup">
		<g enable-background="new    ">
			<path fill="#232323" d="M157.9,247.5c-7,11.1-15.1,19.1-26.2,24.1s-23.1,7-37.2,7c-15.1,0-29.2-3-41.2-9.1
				c-12.1-6-21.1-14.1-29.2-24.1S11.1,223.4,7,210.3c-4-13.1-6-27.2-6-42.2c0-14.1,2-27.2,6-40.2s10.1-24.1,17.1-34.2
				c8-10.1,17.1-18.1,29.2-24.1c11.1-6,25.1-9.1,40.2-9.1c12.1,0,24.1,3,35.2,8c11.1,5,20.1,13.1,26.2,23.1h1V-13h57.3v287.7h-54.3
				L157.9,247.5L157.9,247.5z M155.9,144.9c-2-8-4-15.1-8-21.1s-9.1-11.1-15.1-15.1c-6-4-14.1-6-23.1-6s-17.1,2-24.1,6
				c-6,4-12.1,9.1-15.1,15.1c-4,6-7,13.1-8,21.1c-2,8-3,16.1-3,25.1c0,8,1,16.1,3,24.1c2,8,5,15.1,9.1,21.1c4,6,9.1,11.1,16.1,15.1
				c6,4,14.1,6,23.1,6s17.1-2,23.1-6c6-4,11.1-9.1,15.1-15.1c4-6,6-13.1,8-21.1c2-8,2-16.1,2-25.1C157.9,161,156.9,153,155.9,144.9z
				"/>
		</g>
		<g enable-background="new    ">
			<path fill="#232323" d="M289.7,284.7c10.1,10.1,25.1,15.1,44.3,15.1c14.1,0,26.2-3,36.2-10.1c10.1-7,16.1-14.1,18.1-22.1h60.3
				c-10.1,30.2-24.1,51.3-44.3,64.4c-20.1,13.1-44.3,19.1-72.4,19.1c-20.1,0-37.2-3-53.3-9.1c-16.1-6-29.2-15.1-40.2-27.2
				c-11.1-12.1-19.1-25.1-25.1-41.2c-6-16.1-9.1-34.2-9.1-53.3s3-36.2,9.1-52.3c6-16.1,15.1-30.2,26.2-42.2s25.1-21.1,40.2-28.2
				c16.1-7,33.2-10.1,52.3-10.1c21.1,0,40.2,4,55.3,12.1c16.1,8,29.2,19.1,39.2,33.2c10.1,14.1,17.1,29.2,22.1,47.3
				c4,18.1,6,36.2,5,55.3H272.6C273.6,258.6,278.6,274.7,289.7,284.7z M367.1,154c-8-9.1-21.1-13.1-37.2-13.1c-11.1,0-20.1,2-27.2,6
				s-13.1,8-17.1,14.1c-4,5-7,11.1-9.1,17.1c-2,6-3,12.1-3,16.1h111.6C381.2,176.1,375.2,162,367.1,154z"/>
		</g>
		<g enable-background="new    ">
			<path fill="#232323" d="M474.7,284.7L403.3,76.5h60.3l44.3,141.8h1l44.3-141.8h56.3l-70.4,208.2H474.7z"/>
		</g>
		<g enable-background="new    ">
			<path fill="#232323" d="M59.3,261.6v110.6h1c7-12.1,17.1-21.1,28.2-27.2c11.1-6,23.1-8,34.2-8c16.1,0,28.2,2,38.2,6
				c10.1,4,18.1,10.1,24.1,18.1s10.1,17.1,12.1,27.2c2,11.1,3,23.1,3,36.2v130.8h-58.3V434.6c0-17.1-3-31.2-8-39.2
				c-5-9.1-15.1-13.1-29.2-13.1c-16.1,0-27.2,5-34.2,14.1c-7,9.1-11.1,25.1-11.1,47.3v111.6H1V260.6h58.3V261.6z"/>
		</g>
		<g enable-background="new    ">
			<path fill="#232323" d="M188.1,404.4c1-13.1,4-23.1,9.1-32.2c6-8,13.1-15.1,21.1-20.1c9.1-5,18.1-9.1,29.2-11.1
				c11.1-2,22.1-3,32.2-3c10.1,0,20.1,1,30.2,2c10.1,1,19.1,4,28.2,8c8,4,15.1,10.1,21.1,17.1c5,7,8,17.1,8,29.2V497
				c0,9.1,1,17.1,2,25.1c1,8,3,14.1,5,18.1h-55.3c-1-3-2-6-2-9.1c-1-3-1-6-1-10.1c-9.1,9.1-19.1,15.1-30.2,19.1
				c-12.1,4-24.1,5-36.2,5c-9.1,0-18.1-1-26.2-3c-8-2-15.1-6-21.1-11.1c-6-5-11.1-11.1-14.1-18.1c-3-7-5-16.1-5-26.2
				c0-11.1,2-20.1,6-28.2c4-7,9.1-13.1,15.1-17.1c6-4,13.1-8,21.1-10.1c8-2,16.1-4,24.1-5c8-1,16.1-2,24.1-3s15.1-2,21.1-3
				c6-2,11.1-4,14.1-7c4-3,5-7,5-13.1c0-6-1-10.1-3-14.1c-2-4-4-6-8-8c-3-2-7-3-11.1-4c-4-1-9.1-1-13.1-1c-11.1,0-19.1,2-25.1,7
				c-6,5-10.1,12.1-11.1,23.1h-54.3V404.4z M313.8,444.7c-2,2-5,4-9.1,5c-3,1-7,2-11.1,3c-4,1-8,1-12.1,2c-4,1-9.1,1-13.1,2
				c-4,1-8,2-12.1,3c-4,1-7,3-10.1,5c-3,2-5,5-7,8c-2,3-3,7-3,13.1c0,5,1,9.1,3,12.1c2,3,4,6,7,8c3,2,7,3,11.1,4c4,1,8,1,13.1,1
				c11.1,0,19.1-2,25.1-5c6-4,10.1-8,13.1-13.1c3-5,4-10.1,5-15.1c1-5,1-9.1,1-12.1v-21.1H313.8z"/>
		</g>
		<g enable-background="new    ">
			<path fill="#232323" d="M586.4,543.2c-3,12.1-8,23.1-16.1,34.2c-8,11.1-21.1,19.1-36.2,26.2c-16.1,7-37.2,11.1-64.4,11.1
				c-11.1,0-23.1-1-35.2-4c-12.1-3-23.1-7-32.2-13.1c-10.1-6-18.1-14.1-24.1-23.1s-10.1-21.1-11.1-34.2h63.4
				c3,12.1,9.1,20.1,18.1,25.1c9.1,5,19.1,7,30.2,7c18.1,0,31.2-5,39.2-16.1c8-11.1,12.1-24.1,12.1-41.2v-31.2h-1
				C522,496,512,505,499.9,511c-13.1,6-26.2,9.1-40.2,9.1c-17.1,0-32.2-3-45.3-9.1s-23.1-15.1-31.2-25.1
				c-8-11.1-14.1-23.1-18.1-37.2c-4-14.1-6-29.2-6-45.3c0-15.1,2-29.2,7-43.3c4-14.1,11.1-26.2,19.1-37.2
				c8-11.1,19.1-19.1,31.2-25.1c12.1-6,27.2-9.1,43.3-9.1c15.1,0,29.2,3,40.2,9.1c12.1,6,21.1,15.1,29.2,29.2h1v-31.2h61.4v219.3
				C590.4,520.1,589.4,531.2,586.4,543.2z M497.9,464.8c7-4,13.1-8,17.1-14.1c5-6,8-13.1,10.1-20.1c2-7,3-16.1,3-24.1
				c0-10.1-1-19.1-3-27.2c-2-9.1-5-16.1-9.1-23.1c-4-7-10.1-12.1-17.1-16.1s-16.1-6-26.2-6c-9.1,0-17.1,2-23.1,5
				c-6,3-12.1,8-16.1,15.1c-4,6-8,13.1-9.1,21.1c-2,8-3,16.1-3,25.1c0,8,1,17.1,2,25.1c2,8,4,16.1,9.1,22.1c4,7,9.1,12.1,16.1,16.1
				c7,4,15.1,6,25.1,6C483.8,470.8,491.8,468.8,497.9,464.8z"/>
		</g>
		<g enable-background="new    ">
			<path fill="#232323" d="M658.8,534.2c9.1,9.1,22.1,13.1,39.2,13.1c12.1,0,22.1-3,31.2-9.1c9.1-6,14.1-12.1,16.1-19.1h52.3
				c-8,26.2-21.1,45.3-39.2,56.3c-18.1,11.1-38.2,17.1-63.4,17.1c-17.1,0-32.2-3-46.3-8s-25.1-13.1-35.2-23.1
				c-10.1-10.1-17.1-22.1-22.1-36.2c-5-14.1-8-29.2-8-46.3c0-16.1,3-31.2,8-45.3c5-14.1,13.1-26.2,23.1-36.2
				c10.1-10.1,21.1-18.1,35.2-24.1c14.1-6,29.2-9.1,45.3-9.1c18.1,0,35.2,4,48.3,11.1c14.1,7,25.1,17.1,34.2,29.2
				c9.1,12.1,15.1,26.2,19.1,41.2c4,15.1,5,32.2,4,48.3H644.7C645.7,511,649.8,525.1,658.8,534.2z M727.2,418.5
				c-7-8-18.1-12.1-33.2-12.1c-10.1,0-17.1,2-24.1,5c-6,3-11.1,7-15.1,12.1c-4,5-6,10.1-8,15.1c-2,5-2,10.1-3,14.1h97.6
				C739.3,438.6,734.3,426.5,727.2,418.5z"/>
		</g>
	</g>
</g>
</svg>
